<?xml version="1.0" standalone="no"?>
<svg version="1.0" xmlns="http://www.w3.org/2000/svg" width="512.000000pt" height="512.000000pt"
    viewBox="0 0 512.000000 512.000000" preserveAspectRatio="xMidYMid meet">

    <g transform="translate(0.000000,512.000000) scale(0.100000,-0.100000)" fill="#000000" stroke="none">
        <path d="M3440 5114 c-25 -2 -101 -8 -170 -14 -851 -73 -1582 -389 -2144 -930
-372 -358 -566 -807 -566 -1310 0 -427 144 -825 416 -1151 72 -87 212 -222
279 -270 l45 -32 0 -652 0 -652 23 -34 c63 -94 193 -88 252 12 19 33 20 57 25
590 l5 556 75 -30 c98 -39 248 -82 363 -104 70 -13 144 -17 312 -17 200 0 231
2 346 27 212 45 413 123 577 225 342 213 558 475 668 809 91 278 103 528 54
1108 -54 638 -35 874 90 1125 75 150 190 278 350 391 57 40 95 75 105 95 43
92 -8 193 -109 214 -114 23 -378 41 -656 44 -162 2 -315 2 -340 0z m-209 -365
c-312 -168 -624 -407 -881 -677 -565 -590 -920 -1339 -1025 -2156 -8 -66 -17
-121 -19 -123 -6 -7 -148 165 -199 240 -99 147 -176 332 -220 525 -29 131 -31
450 -4 585 69 341 235 621 517 873 430 383 921 621 1515 734 140 26 296 47
360 49 l50 1 -94 -51z m673 -103 c-97 -139 -175 -341 -212 -546 -26 -149 -23
-554 8 -880 30 -325 33 -666 7 -809 -25 -130 -62 -241 -114 -343 -59 -115
-121 -196 -232 -300 -200 -188 -439 -311 -731 -374 -67 -15 -126 -19 -285 -19
-216 1 -303 14 -472 70 -110 37 -262 111 -270 131 -10 26 15 289 43 453 121
717 461 1377 973 1889 293 294 645 535 988 678 91 39 309 113 330 114 7 0 -8
-29 -33 -64z" />
    </g>
</svg>
