<?xml version="1.0" standalone="no"?>
<svg version="1.0" xmlns="http://www.w3.org/2000/svg" width="276.000000pt" height="316.000000pt"
    viewBox="0 0 276.000000 316.000000" preserveAspectRatio="xMidYMid meet">

    <g transform="translate(0.000000,316.000000) scale(0.100000,-0.100000)" fill="#000000" stroke="none">
        <path d="M1205 3134 c-157 -34 -319 -151 -394 -285 -29 -52 -34 -56 -91 -73
-157 -47 -301 -198 -345 -361 l-18 -65 -149 0 c-145 0 -150 -1 -173 -25 l-25
-24 0 -321 0 -321 25 -24 c21 -22 33 -25 92 -25 l68 0 58 -612 c32 -337 63
-641 68 -676 19 -126 86 -220 197 -274 l67 -33 795 0 795 0 67 33 c111 54 178
148 197 274 5 35 36 339 67 676 l58 612 69 0 c59 0 71 3 92 25 l25 24 0 321 0
321 -25 24 c-24 25 -27 25 -187 25 l-164 0 -43 65 c-76 116 -190 184 -323 193
-67 4 -78 7 -78 23 0 10 -11 53 -25 97 -92 292 -403 472 -700 406z m217 -135
c201 -42 342 -199 369 -412 16 -123 14 -121 151 -122 99 0 119 -3 160 -24 26
-13 62 -39 79 -58 l33 -33 -856 0 -857 0 9 31 c38 131 151 236 296 274 70 18
79 25 110 92 87 183 308 293 506 252z m1188 -1019 l0 -230 -1230 0 -1230 0 0
230 0 230 1230 0 1230 0 0 -230z m-190 -391 c0 -11 -27 -304 -60 -650 -66
-690 -64 -678 -135 -737 -20 -16 -53 -34 -74 -41 -54 -16 -1488 -16 -1542 0
-21 7 -54 25 -74 41 -71 59 -69 47 -135 737 -33 346 -60 639 -60 650 l0 21
1040 0 1040 0 0 -21z" />
    </g>
</svg>
